<?xml version="1.0" encoding="utf-8" standalone="no"?>
<!DOCTYPE svg PUBLIC "-//W3C//DTD SVG 1.1//EN"
  "http://www.w3.org/Graphics/SVG/1.1/DTD/svg11.dtd">
<svg xmlns:xlink="http://www.w3.org/1999/xlink" width="689.76pt" height="223.92pt" viewBox="0 0 689.76 223.92" xmlns="http://www.w3.org/2000/svg" version="1.1">
 <metadata>
  <rdf:RDF xmlns:dc="http://purl.org/dc/elements/1.1/" xmlns:cc="http://creativecommons.org/ns#" xmlns:rdf="http://www.w3.org/1999/02/22-rdf-syntax-ns#">
   <cc:Work>
    <dc:type rdf:resource="http://purl.org/dc/dcmitype/StillImage"/>
    <dc:date>2023-04-15T11:56:36.057489</dc:date>
    <dc:format>image/svg+xml</dc:format>
    <dc:creator>
     <cc:Agent>
      <dc:title>Matplotlib v3.6.1, https://matplotlib.org/</dc:title>
     </cc:Agent>
    </dc:creator>
   </cc:Work>
  </rdf:RDF>
 </metadata>
 <defs>
  <style type="text/css">*{stroke-linejoin: round; stroke-linecap: butt}</style>
 </defs>
 <g id="figure_1">
  <g id="patch_1">
   <path d="M 0 223.92 
L 689.76 223.92 
L 689.76 0 
L 0 0 
z
" style="fill: #ffffff"/>
  </g>
  <g id="axes_1">
   <g id="patch_2">
    <path d="M 86.22 199.2888 
L 620.784 199.2888 
L 620.784 26.8704 
L 86.22 26.8704 
z
" style="fill: #ffffff"/>
   </g>
   <g id="matplotlib.axis_1">
    <g id="xtick_1">
     <g id="line2d_1">
      <defs>
       <path id="m8b478d4d9b" d="M 0 0 
L 0 3.5 
" style="stroke: #000000; stroke-width: 0.8"/>
      </defs>
      <g>
       <use xlink:href="#m8b478d4d9b" x="96.834794" y="199.2888" style="stroke: #000000; stroke-width: 0.8"/>
      </g>
     </g>
     <g id="text_1">
      <!-- 2021-09 -->
      <g transform="translate(75.943388 213.887237) scale(0.1 -0.1)">
       <defs>
        <path id="DejaVuSans-32" d="M 1228 531 
L 3431 531 
L 3431 0 
L 469 0 
L 469 531 
Q 828 903 1448 1529 
Q 2069 2156 2228 2338 
Q 2531 2678 2651 2914 
Q 2772 3150 2772 3378 
Q 2772 3750 2511 3984 
Q 2250 4219 1831 4219 
Q 1534 4219 1204 4116 
Q 875 4013 500 3803 
L 500 4441 
Q 881 4594 1212 4672 
Q 1544 4750 1819 4750 
Q 2544 4750 2975 4387 
Q 3406 4025 3406 3419 
Q 3406 3131 3298 2873 
Q 3191 2616 2906 2266 
Q 2828 2175 2409 1742 
Q 1991 1309 1228 531 
z
" transform="scale(0.015625)"/>
        <path id="DejaVuSans-30" d="M 2034 4250 
Q 1547 4250 1301 3770 
Q 1056 3291 1056 2328 
Q 1056 1369 1301 889 
Q 1547 409 2034 409 
Q 2525 409 2770 889 
Q 3016 1369 3016 2328 
Q 3016 3291 2770 3770 
Q 2525 4250 2034 4250 
z
M 2034 4750 
Q 2819 4750 3233 4129 
Q 3647 3509 3647 2328 
Q 3647 1150 3233 529 
Q 2819 -91 2034 -91 
Q 1250 -91 836 529 
Q 422 1150 422 2328 
Q 422 3509 836 4129 
Q 1250 4750 2034 4750 
z
" transform="scale(0.015625)"/>
        <path id="DejaVuSans-31" d="M 794 531 
L 1825 531 
L 1825 4091 
L 703 3866 
L 703 4441 
L 1819 4666 
L 2450 4666 
L 2450 531 
L 3481 531 
L 3481 0 
L 794 0 
L 794 531 
z
" transform="scale(0.015625)"/>
        <path id="DejaVuSans-2d" d="M 313 2009 
L 1997 2009 
L 1997 1497 
L 313 1497 
L 313 2009 
z
" transform="scale(0.015625)"/>
        <path id="DejaVuSans-39" d="M 703 97 
L 703 672 
Q 941 559 1184 500 
Q 1428 441 1663 441 
Q 2288 441 2617 861 
Q 2947 1281 2994 2138 
Q 2813 1869 2534 1725 
Q 2256 1581 1919 1581 
Q 1219 1581 811 2004 
Q 403 2428 403 3163 
Q 403 3881 828 4315 
Q 1253 4750 1959 4750 
Q 2769 4750 3195 4129 
Q 3622 3509 3622 2328 
Q 3622 1225 3098 567 
Q 2575 -91 1691 -91 
Q 1453 -91 1209 -44 
Q 966 3 703 97 
z
M 1959 2075 
Q 2384 2075 2632 2365 
Q 2881 2656 2881 3163 
Q 2881 3666 2632 3958 
Q 2384 4250 1959 4250 
Q 1534 4250 1286 3958 
Q 1038 3666 1038 3163 
Q 1038 2656 1286 2365 
Q 1534 2075 1959 2075 
z
" transform="scale(0.015625)"/>
       </defs>
       <use xlink:href="#DejaVuSans-32"/>
       <use xlink:href="#DejaVuSans-30" x="63.623047"/>
       <use xlink:href="#DejaVuSans-32" x="127.246094"/>
       <use xlink:href="#DejaVuSans-31" x="190.869141"/>
       <use xlink:href="#DejaVuSans-2d" x="254.492188"/>
       <use xlink:href="#DejaVuSans-30" x="290.576172"/>
       <use xlink:href="#DejaVuSans-39" x="354.199219"/>
      </g>
     </g>
    </g>
    <g id="xtick_2">
     <g id="line2d_2">
      <g>
       <use xlink:href="#m8b478d4d9b" x="148.337798" y="199.2888" style="stroke: #000000; stroke-width: 0.8"/>
      </g>
     </g>
     <g id="text_2">
      <!-- 2021-11 -->
      <g transform="translate(127.446392 213.887237) scale(0.1 -0.1)">
       <use xlink:href="#DejaVuSans-32"/>
       <use xlink:href="#DejaVuSans-30" x="63.623047"/>
       <use xlink:href="#DejaVuSans-32" x="127.246094"/>
       <use xlink:href="#DejaVuSans-31" x="190.869141"/>
       <use xlink:href="#DejaVuSans-2d" x="254.492188"/>
       <use xlink:href="#DejaVuSans-31" x="290.576172"/>
       <use xlink:href="#DejaVuSans-31" x="354.199219"/>
      </g>
     </g>
    </g>
    <g id="xtick_3">
     <g id="line2d_3">
      <g>
       <use xlink:href="#m8b478d4d9b" x="199.840802" y="199.2888" style="stroke: #000000; stroke-width: 0.8"/>
      </g>
     </g>
     <g id="text_3">
      <!-- 2022-01 -->
      <g transform="translate(178.949395 213.887237) scale(0.1 -0.1)">
       <use xlink:href="#DejaVuSans-32"/>
       <use xlink:href="#DejaVuSans-30" x="63.623047"/>
       <use xlink:href="#DejaVuSans-32" x="127.246094"/>
       <use xlink:href="#DejaVuSans-32" x="190.869141"/>
       <use xlink:href="#DejaVuSans-2d" x="254.492188"/>
       <use xlink:href="#DejaVuSans-30" x="290.576172"/>
       <use xlink:href="#DejaVuSans-31" x="354.199219"/>
      </g>
     </g>
    </g>
    <g id="xtick_4">
     <g id="line2d_4">
      <g>
       <use xlink:href="#m8b478d4d9b" x="249.655182" y="199.2888" style="stroke: #000000; stroke-width: 0.8"/>
      </g>
     </g>
     <g id="text_4">
      <!-- 2022-03 -->
      <g transform="translate(228.763776 213.887237) scale(0.1 -0.1)">
       <defs>
        <path id="DejaVuSans-33" d="M 2597 2516 
Q 3050 2419 3304 2112 
Q 3559 1806 3559 1356 
Q 3559 666 3084 287 
Q 2609 -91 1734 -91 
Q 1441 -91 1130 -33 
Q 819 25 488 141 
L 488 750 
Q 750 597 1062 519 
Q 1375 441 1716 441 
Q 2309 441 2620 675 
Q 2931 909 2931 1356 
Q 2931 1769 2642 2001 
Q 2353 2234 1838 2234 
L 1294 2234 
L 1294 2753 
L 1863 2753 
Q 2328 2753 2575 2939 
Q 2822 3125 2822 3475 
Q 2822 3834 2567 4026 
Q 2313 4219 1838 4219 
Q 1578 4219 1281 4162 
Q 984 4106 628 3988 
L 628 4550 
Q 988 4650 1302 4700 
Q 1616 4750 1894 4750 
Q 2613 4750 3031 4423 
Q 3450 4097 3450 3541 
Q 3450 3153 3228 2886 
Q 3006 2619 2597 2516 
z
" transform="scale(0.015625)"/>
       </defs>
       <use xlink:href="#DejaVuSans-32"/>
       <use xlink:href="#DejaVuSans-30" x="63.623047"/>
       <use xlink:href="#DejaVuSans-32" x="127.246094"/>
       <use xlink:href="#DejaVuSans-32" x="190.869141"/>
       <use xlink:href="#DejaVuSans-2d" x="254.492188"/>
       <use xlink:href="#DejaVuSans-30" x="290.576172"/>
       <use xlink:href="#DejaVuSans-33" x="354.199219"/>
      </g>
     </g>
    </g>
    <g id="xtick_5">
     <g id="line2d_5">
      <g>
       <use xlink:href="#m8b478d4d9b" x="301.158186" y="199.2888" style="stroke: #000000; stroke-width: 0.8"/>
      </g>
     </g>
     <g id="text_5">
      <!-- 2022-05 -->
      <g transform="translate(280.26678 213.887237) scale(0.1 -0.1)">
       <defs>
        <path id="DejaVuSans-35" d="M 691 4666 
L 3169 4666 
L 3169 4134 
L 1269 4134 
L 1269 2991 
Q 1406 3038 1543 3061 
Q 1681 3084 1819 3084 
Q 2600 3084 3056 2656 
Q 3513 2228 3513 1497 
Q 3513 744 3044 326 
Q 2575 -91 1722 -91 
Q 1428 -91 1123 -41 
Q 819 9 494 109 
L 494 744 
Q 775 591 1075 516 
Q 1375 441 1709 441 
Q 2250 441 2565 725 
Q 2881 1009 2881 1497 
Q 2881 1984 2565 2268 
Q 2250 2553 1709 2553 
Q 1456 2553 1204 2497 
Q 953 2441 691 2322 
L 691 4666 
z
" transform="scale(0.015625)"/>
       </defs>
       <use xlink:href="#DejaVuSans-32"/>
       <use xlink:href="#DejaVuSans-30" x="63.623047"/>
       <use xlink:href="#DejaVuSans-32" x="127.246094"/>
       <use xlink:href="#DejaVuSans-32" x="190.869141"/>
       <use xlink:href="#DejaVuSans-2d" x="254.492188"/>
       <use xlink:href="#DejaVuSans-30" x="290.576172"/>
       <use xlink:href="#DejaVuSans-35" x="354.199219"/>
      </g>
     </g>
    </g>
    <g id="xtick_6">
     <g id="line2d_6">
      <g>
       <use xlink:href="#m8b478d4d9b" x="352.66119" y="199.2888" style="stroke: #000000; stroke-width: 0.8"/>
      </g>
     </g>
     <g id="text_6">
      <!-- 2022-07 -->
      <g transform="translate(331.769783 213.887237) scale(0.1 -0.1)">
       <defs>
        <path id="DejaVuSans-37" d="M 525 4666 
L 3525 4666 
L 3525 4397 
L 1831 0 
L 1172 0 
L 2766 4134 
L 525 4134 
L 525 4666 
z
" transform="scale(0.015625)"/>
       </defs>
       <use xlink:href="#DejaVuSans-32"/>
       <use xlink:href="#DejaVuSans-30" x="63.623047"/>
       <use xlink:href="#DejaVuSans-32" x="127.246094"/>
       <use xlink:href="#DejaVuSans-32" x="190.869141"/>
       <use xlink:href="#DejaVuSans-2d" x="254.492188"/>
       <use xlink:href="#DejaVuSans-30" x="290.576172"/>
       <use xlink:href="#DejaVuSans-37" x="354.199219"/>
      </g>
     </g>
    </g>
    <g id="xtick_7">
     <g id="line2d_7">
      <g>
       <use xlink:href="#m8b478d4d9b" x="405.008505" y="199.2888" style="stroke: #000000; stroke-width: 0.8"/>
      </g>
     </g>
     <g id="text_7">
      <!-- 2022-09 -->
      <g transform="translate(384.117099 213.887237) scale(0.1 -0.1)">
       <use xlink:href="#DejaVuSans-32"/>
       <use xlink:href="#DejaVuSans-30" x="63.623047"/>
       <use xlink:href="#DejaVuSans-32" x="127.246094"/>
       <use xlink:href="#DejaVuSans-32" x="190.869141"/>
       <use xlink:href="#DejaVuSans-2d" x="254.492188"/>
       <use xlink:href="#DejaVuSans-30" x="290.576172"/>
       <use xlink:href="#DejaVuSans-39" x="354.199219"/>
      </g>
     </g>
    </g>
    <g id="xtick_8">
     <g id="line2d_8">
      <g>
       <use xlink:href="#m8b478d4d9b" x="456.511509" y="199.2888" style="stroke: #000000; stroke-width: 0.8"/>
      </g>
     </g>
     <g id="text_8">
      <!-- 2022-11 -->
      <g transform="translate(435.620102 213.887237) scale(0.1 -0.1)">
       <use xlink:href="#DejaVuSans-32"/>
       <use xlink:href="#DejaVuSans-30" x="63.623047"/>
       <use xlink:href="#DejaVuSans-32" x="127.246094"/>
       <use xlink:href="#DejaVuSans-32" x="190.869141"/>
       <use xlink:href="#DejaVuSans-2d" x="254.492188"/>
       <use xlink:href="#DejaVuSans-31" x="290.576172"/>
       <use xlink:href="#DejaVuSans-31" x="354.199219"/>
      </g>
     </g>
    </g>
    <g id="xtick_9">
     <g id="line2d_9">
      <g>
       <use xlink:href="#m8b478d4d9b" x="508.014512" y="199.2888" style="stroke: #000000; stroke-width: 0.8"/>
      </g>
     </g>
     <g id="text_9">
      <!-- 2023-01 -->
      <g transform="translate(487.123106 213.887237) scale(0.1 -0.1)">
       <use xlink:href="#DejaVuSans-32"/>
       <use xlink:href="#DejaVuSans-30" x="63.623047"/>
       <use xlink:href="#DejaVuSans-32" x="127.246094"/>
       <use xlink:href="#DejaVuSans-33" x="190.869141"/>
       <use xlink:href="#DejaVuSans-2d" x="254.492188"/>
       <use xlink:href="#DejaVuSans-30" x="290.576172"/>
       <use xlink:href="#DejaVuSans-31" x="354.199219"/>
      </g>
     </g>
    </g>
    <g id="xtick_10">
     <g id="line2d_10">
      <g>
       <use xlink:href="#m8b478d4d9b" x="557.828893" y="199.2888" style="stroke: #000000; stroke-width: 0.8"/>
      </g>
     </g>
     <g id="text_10">
      <!-- 2023-03 -->
      <g transform="translate(536.937487 213.887237) scale(0.1 -0.1)">
       <use xlink:href="#DejaVuSans-32"/>
       <use xlink:href="#DejaVuSans-30" x="63.623047"/>
       <use xlink:href="#DejaVuSans-32" x="127.246094"/>
       <use xlink:href="#DejaVuSans-33" x="190.869141"/>
       <use xlink:href="#DejaVuSans-2d" x="254.492188"/>
       <use xlink:href="#DejaVuSans-30" x="290.576172"/>
       <use xlink:href="#DejaVuSans-33" x="354.199219"/>
      </g>
     </g>
    </g>
    <g id="xtick_11">
     <g id="line2d_11">
      <g>
       <use xlink:href="#m8b478d4d9b" x="609.331897" y="199.2888" style="stroke: #000000; stroke-width: 0.8"/>
      </g>
     </g>
     <g id="text_11">
      <!-- 2023-05 -->
      <g transform="translate(588.44049 213.887237) scale(0.1 -0.1)">
       <use xlink:href="#DejaVuSans-32"/>
       <use xlink:href="#DejaVuSans-30" x="63.623047"/>
       <use xlink:href="#DejaVuSans-32" x="127.246094"/>
       <use xlink:href="#DejaVuSans-33" x="190.869141"/>
       <use xlink:href="#DejaVuSans-2d" x="254.492188"/>
       <use xlink:href="#DejaVuSans-30" x="290.576172"/>
       <use xlink:href="#DejaVuSans-35" x="354.199219"/>
      </g>
     </g>
    </g>
   </g>
   <g id="matplotlib.axis_2">
    <g id="ytick_1">
     <g id="line2d_12">
      <defs>
       <path id="m85189c35bb" d="M 0 0 
L -3.5 0 
" style="stroke: #000000; stroke-width: 0.8"/>
      </defs>
      <g>
       <use xlink:href="#m85189c35bb" x="86.22" y="194.304908" style="stroke: #000000; stroke-width: 0.8"/>
      </g>
     </g>
     <g id="text_12">
      <!-- 0 B -->
      <g transform="translate(62.818438 198.104126) scale(0.1 -0.1)">
       <defs>
        <path id="DejaVuSans-20" transform="scale(0.015625)"/>
        <path id="DejaVuSans-42" d="M 1259 2228 
L 1259 519 
L 2272 519 
Q 2781 519 3026 730 
Q 3272 941 3272 1375 
Q 3272 1813 3026 2020 
Q 2781 2228 2272 2228 
L 1259 2228 
z
M 1259 4147 
L 1259 2741 
L 2194 2741 
Q 2656 2741 2882 2914 
Q 3109 3088 3109 3444 
Q 3109 3797 2882 3972 
Q 2656 4147 2194 4147 
L 1259 4147 
z
M 628 4666 
L 2241 4666 
Q 2963 4666 3353 4366 
Q 3744 4066 3744 3513 
Q 3744 3084 3544 2831 
Q 3344 2578 2956 2516 
Q 3422 2416 3680 2098 
Q 3938 1781 3938 1306 
Q 3938 681 3513 340 
Q 3088 0 2303 0 
L 628 0 
L 628 4666 
z
" transform="scale(0.015625)"/>
       </defs>
       <use xlink:href="#DejaVuSans-30"/>
       <use xlink:href="#DejaVuSans-20" x="63.623047"/>
       <use xlink:href="#DejaVuSans-42" x="95.410156"/>
      </g>
     </g>
    </g>
    <g id="ytick_2">
     <g id="line2d_13">
      <g>
       <use xlink:href="#m85189c35bb" x="86.22" y="154.067675" style="stroke: #000000; stroke-width: 0.8"/>
      </g>
     </g>
     <g id="text_13">
      <!-- 10 GB -->
      <g transform="translate(48.7075 157.866894) scale(0.1 -0.1)">
       <defs>
        <path id="DejaVuSans-47" d="M 3809 666 
L 3809 1919 
L 2778 1919 
L 2778 2438 
L 4434 2438 
L 4434 434 
Q 4069 175 3628 42 
Q 3188 -91 2688 -91 
Q 1594 -91 976 548 
Q 359 1188 359 2328 
Q 359 3472 976 4111 
Q 1594 4750 2688 4750 
Q 3144 4750 3555 4637 
Q 3966 4525 4313 4306 
L 4313 3634 
Q 3963 3931 3569 4081 
Q 3175 4231 2741 4231 
Q 1884 4231 1454 3753 
Q 1025 3275 1025 2328 
Q 1025 1384 1454 906 
Q 1884 428 2741 428 
Q 3075 428 3337 486 
Q 3600 544 3809 666 
z
" transform="scale(0.015625)"/>
       </defs>
       <use xlink:href="#DejaVuSans-31"/>
       <use xlink:href="#DejaVuSans-30" x="63.623047"/>
       <use xlink:href="#DejaVuSans-20" x="127.246094"/>
       <use xlink:href="#DejaVuSans-47" x="159.033203"/>
       <use xlink:href="#DejaVuSans-42" x="236.523438"/>
      </g>
     </g>
    </g>
    <g id="ytick_3">
     <g id="line2d_14">
      <g>
       <use xlink:href="#m85189c35bb" x="86.22" y="113.830442" style="stroke: #000000; stroke-width: 0.8"/>
      </g>
     </g>
     <g id="text_14">
      <!-- 20 GB -->
      <g transform="translate(48.7075 117.629661) scale(0.1 -0.1)">
       <use xlink:href="#DejaVuSans-32"/>
       <use xlink:href="#DejaVuSans-30" x="63.623047"/>
       <use xlink:href="#DejaVuSans-20" x="127.246094"/>
       <use xlink:href="#DejaVuSans-47" x="159.033203"/>
       <use xlink:href="#DejaVuSans-42" x="236.523438"/>
      </g>
     </g>
    </g>
    <g id="ytick_4">
     <g id="line2d_15">
      <g>
       <use xlink:href="#m85189c35bb" x="86.22" y="73.593209" style="stroke: #000000; stroke-width: 0.8"/>
      </g>
     </g>
     <g id="text_15">
      <!-- 30 GB -->
      <g transform="translate(48.7075 77.392428) scale(0.1 -0.1)">
       <use xlink:href="#DejaVuSans-33"/>
       <use xlink:href="#DejaVuSans-30" x="63.623047"/>
       <use xlink:href="#DejaVuSans-20" x="127.246094"/>
       <use xlink:href="#DejaVuSans-47" x="159.033203"/>
       <use xlink:href="#DejaVuSans-42" x="236.523438"/>
      </g>
     </g>
    </g>
    <g id="ytick_5">
     <g id="line2d_16">
      <g>
       <use xlink:href="#m85189c35bb" x="86.22" y="33.355977" style="stroke: #000000; stroke-width: 0.8"/>
      </g>
     </g>
     <g id="text_16">
      <!-- 40 GB -->
      <g transform="translate(48.7075 37.155195) scale(0.1 -0.1)">
       <defs>
        <path id="DejaVuSans-34" d="M 2419 4116 
L 825 1625 
L 2419 1625 
L 2419 4116 
z
M 2253 4666 
L 3047 4666 
L 3047 1625 
L 3713 1625 
L 3713 1100 
L 3047 1100 
L 3047 0 
L 2419 0 
L 2419 1100 
L 313 1100 
L 313 1709 
L 2253 4666 
z
" transform="scale(0.015625)"/>
       </defs>
       <use xlink:href="#DejaVuSans-34"/>
       <use xlink:href="#DejaVuSans-30" x="63.623047"/>
       <use xlink:href="#DejaVuSans-20" x="127.246094"/>
       <use xlink:href="#DejaVuSans-47" x="159.033203"/>
       <use xlink:href="#DejaVuSans-42" x="236.523438"/>
      </g>
     </g>
    </g>
   </g>
   <g id="line2d_17">
    <path d="M 110.518364 191.039102 
L 112.935464 191.110081 
L 112.941332 191.196272 
L 113.046896 191.154596 
L 113.181718 191.166331 
L 114.665142 191.146729 
L 114.782402 191.148734 
L 115.990242 191.119309 
L 116.066461 183.181675 
L 116.113361 183.190683 
L 116.336205 183.214682 
L 116.840413 183.179277 
L 116.887324 188.091077 
L 116.987031 188.079865 
L 117.121857 188.106066 
L 117.221521 188.106601 
L 117.350544 187.552753 
L 118.007191 187.549847 
L 118.083437 190.822108 
L 118.118613 190.811851 
L 118.212413 190.799452 
L 119.766222 190.731733 
L 119.871745 191.04975 
L 119.877624 191.048173 
L 119.883477 191.044124 
L 125.60607 191.058345 
L 125.611938 191.34382 
L 125.717458 191.327622 
L 125.746802 191.319079 
L 129.200199 191.191544 
L 130.619097 191.24937 
L 130.712963 191.343027 
L 130.730516 191.338944 
L 132.993718 191.267671 
L 133.14031 191.304783 
L 133.415909 191.257088 
L 135.749528 191.254817 
L 135.849171 191.391454 
L 135.860875 191.387514 
L 136.294974 191.377193 
L 137.262232 191.234192 
L 137.320867 190.987396 
L 137.373618 190.99184 
L 139.120877 190.987132 
L 139.238126 190.795354 
L 140.967814 190.838661 
L 142.11112 190.827844 
L 142.638823 190.993139 
L 144.063585 190.979648 
L 144.069481 191.196059 
L 144.145721 191.173052 
L 146.537889 191.120508 
L 146.543785 191.423771 
L 150.190705 191.417788 
L 150.302114 191.398187 
L 151.46304 191.227056 
L 151.574481 191.264754 
L 151.785547 191.279829 
L 151.973159 191.275035 
L 152.694347 191.277987 
L 152.811657 190.960805 
L 155.052079 190.913018 
L 155.121794 191.078996 
L 155.163352 191.066918 
L 155.29762 191.062298 
L 155.373844 191.057904 
L 155.930867 191.05009 
L 155.936729 191.332691 
L 156.042275 191.304067 
L 156.171253 191.283057 
L 156.218166 190.710721 
L 156.241603 190.718181 
L 156.78695 190.730466 
L 156.845577 190.541403 
L 156.90418 190.544687 
L 157.39081 190.518282 
L 157.449467 190.628805 
L 157.508084 190.619628 
L 158.358297 190.641854 
L 158.487264 190.689977 
L 158.499002 190.689851 
L 158.534173 191.197541 
L 158.610382 191.188729 
L 159.167399 191.177274 
L 159.290529 191.198527 
L 159.589574 191.194651 
L 159.900301 191.195618 
L 159.906157 191.376223 
L 160.011712 191.244551 
L 160.134903 191.245561 
L 160.820843 191.21306 
L 160.943996 191.21824 
L 161.31923 191.184158 
L 162.615028 191.184359 
L 162.726414 191.304809 
L 162.732271 191.304119 
L 162.743995 191.303359 
L 162.785057 190.986818 
L 162.861283 190.990799 
L 163.013706 190.99783 
L 165.065954 190.970964 
L 165.171392 191.008274 
L 165.177316 191.007333 
L 165.505603 190.986233 
L 169.733058 190.980373 
L 169.762385 191.098 
L 169.791707 191.09419 
L 173.69077 191.048343 
L 173.808024 190.899564 
L 174.27121 190.863671 
L 174.400216 190.850018 
L 174.535075 190.823123 
L 174.576116 190.570192 
L 174.652347 190.598291 
L 174.8341 190.581404 
L 176.46991 190.668339 
L 176.499224 190.665022 
L 177.109059 190.613789 
L 177.220421 190.840646 
L 177.226282 190.839711 
L 177.331819 190.841273 
L 177.812615 190.827442 
L 177.818478 190.978846 
L 177.92404 190.965215 
L 178.146814 190.985632 
L 182.344997 191.097193 
L 182.995792 191.04782 
L 183.63494 191.036123 
L 185.276607 190.945251 
L 185.417336 190.843603 
L 185.429078 190.857627 
L 185.821877 190.810815 
L 186.57239 190.843982 
L 186.625151 190.936092 
L 188.049964 191.055951 
L 188.196518 191.050736 
L 188.724214 191.047254 
L 188.741806 191.085933 
L 188.835623 191.045154 
L 190.547699 191.043333 
L 190.635696 191.042697 
L 190.682525 189.545329 
L 190.752892 189.557604 
L 191.233692 189.447173 
L 191.4858 189.443285 
L 191.49166 190.873543 
L 191.597195 190.838743 
L 191.691018 190.836788 
L 192.054528 190.835165 
L 192.13667 190.982753 
L 192.166811 190.969154 
L 193.110241 190.937128 
L 194.007017 190.921836 
L 197.935444 190.943259 
L 198.046818 191.322653 
L 198.416259 191.309501 
L 200.497665 191.192185 
L 200.620787 191.176262 
L 202.373894 191.322799 
L 202.473557 191.276538 
L 202.485294 191.282217 
L 203.986293 191.265273 
L 204.132893 191.291598 
L 204.279424 191.285285 
L 206.624776 191.379104 
L 206.736143 191.388157 
L 206.747861 191.374024 
L 207.697709 191.380181 
L 208.588937 191.337749 
L 209.151837 191.178249 
L 211.022187 191.137077 
L 211.080823 191.339922 
L 211.127725 191.313611 
L 212.271064 191.31784 
L 212.35903 190.993541 
L 212.388322 191.00255 
L 212.675622 190.955609 
L 214.088695 191.065596 
L 214.205986 190.94284 
L 218.744148 190.966253 
L 218.779329 190.911123 
L 222.473221 190.930728 
L 222.590476 190.974868 
L 222.924727 190.920756 
L 224.255676 190.978186 
L 224.261576 191.100387 
L 224.367039 191.071165 
L 224.648452 191.069779 
L 224.666048 191.071497 
L 225.305203 191.030619 
L 225.451769 190.148393 
L 225.486896 190.08493 
L 225.651087 189.232254 
L 225.674557 189.134827 
L 225.832931 188.352406 
L 226.102593 188.369666 
L 226.243394 188.457829 
L 226.313641 188.638737 
L 226.636146 188.727021 
L 226.642041 189.587188 
L 226.747604 189.571868 
L 226.864819 189.445658 
L 227.028929 189.489449 
L 227.140338 189.850775 
L 227.152058 189.84999 
L 227.544895 189.848878 
L 227.562754 190.232702 
L 227.597816 188.645894 
L 227.609426 188.732308 
L 227.627028 187.435 
L 227.726676 187.578939 
L 227.767715 187.639732 
L 227.838062 187.731221 
L 227.873241 187.567626 
L 227.984656 187.544969 
L 228.465434 187.558188 
L 228.582722 187.963088 
L 229.315601 188.017022 
L 229.432892 188.137364 
L 229.690865 188.086192 
L 230.048514 188.083711 
L 230.130607 189.622138 
L 230.159916 189.621029 
L 230.23031 189.626481 
L 230.271352 190.811678 
L 230.34169 190.80912 
L 233.009484 190.597645 
L 233.12091 190.580555 
L 235.120248 190.659421 
L 235.237516 190.758522 
L 237.600438 190.634454 
L 237.694259 190.790856 
L 237.711866 190.778562 
L 238.122306 190.754885 
L 238.550358 190.732898 
L 238.555857 191.136549 
L 238.661679 191.063628 
L 239.582212 190.854882 
L 241.14771 190.750112 
L 242.162064 190.719408 
L 242.326245 190.702507 
L 276.034205 190.467827 
L 276.057679 189.720921 
L 277.623172 189.776809 
L 277.629021 190.103771 
L 277.658377 190.101215 
L 280.249891 190.126599 
L 280.255771 190.829834 
L 280.302683 190.811274 
L 283.204967 190.691228 
L 284.395204 190.741539 
L 284.465591 190.787884 
L 284.483177 190.779388 
L 285.128144 190.678791 
L 285.245385 190.554596 
L 286.517714 190.562355 
L 286.523589 190.688678 
L 286.564634 190.64336 
L 286.88713 190.521676 
L 286.957475 190.476038 
L 286.969213 190.215587 
L 287.655196 190.205243 
L 287.684525 190.335825 
L 287.73142 190.32922 
L 293.618145 190.311511 
L 293.653342 190.401178 
L 293.729552 190.344879 
L 294.052049 190.229137 
L 296.180411 190.266747 
L 296.19803 190.436479 
L 296.244952 190.426665 
L 297.992155 190.307801 
L 298.566742 190.188607 
L 298.848188 190.144246 
L 299.674923 190.245075 
L 311.043804 190.19234 
L 311.213823 190.234774 
L 311.354555 190.272353 
L 311.489441 190.277091 
L 317.258896 190.156323 
L 317.440684 190.125648 
L 319.733208 190.0057 
L 319.96776 189.92707 
L 319.979447 189.991745 
L 319.985315 189.990685 
L 322.049185 190.06519 
L 322.160623 190.245544 
L 322.166471 190.243808 
L 325.625834 190.236744 
L 325.737155 190.284956 
L 326.434939 190.157769 
L 326.769108 190.122333 
L 328.909505 190.12495 
L 329.020856 190.239592 
L 329.026633 190.237306 
L 329.273151 190.219682 
L 331.477422 190.127735 
L 331.583003 190.026097 
L 331.594683 190.030152 
L 331.817455 190.006226 
L 336.255878 190.089431 
L 336.261774 190.121445 
L 336.361455 190.079771 
L 336.683923 190.01926 
L 336.877408 189.989932 
L 337.393381 190.022189 
L 337.463741 190.120241 
L 337.504779 190.030351 
L 337.668966 189.958581 
L 338.14977 189.85268 
L 338.302203 189.865764 
L 339.89116 189.798389 
L 340.266389 189.263665 
L 340.618159 189.13818 
L 340.811662 189.062525 
L 340.946532 189.114641 
L 341.052088 189.134603 
L 341.063787 189.175043 
L 341.444903 189.181164 
L 341.56214 189.495731 
L 341.943282 189.630402 
L 343.063132 189.496717 
L 343.456017 188.988716 
L 343.5674 188.931364 
L 344.006558 188.931013 
L 344.095094 189.254412 
L 344.112718 189.054173 
L 344.482175 189.03123 
L 344.493952 189.013051 
L 346.499048 188.846429 
L 346.674962 188.465399 
L 346.6808 188.719509 
L 346.786342 188.674496 
L 347.290581 188.881965 
L 347.331632 188.849748 
L 347.360948 188.957265 
L 347.478226 188.951038 
L 347.595519 188.916723 
L 347.730311 188.576725 
L 347.876909 188.267051 
L 348.211112 188.131595 
L 348.32839 188.10932 
L 348.445664 188.198817 
L 348.727086 188.649119 
L 348.750527 188.615138 
L 349.143538 188.606783 
L 349.260663 189.200058 
L 349.377885 189.171302 
L 349.501044 189.229468 
L 349.864581 189.234761 
L 349.870429 189.397453 
L 349.975994 189.294294 
L 350.351204 189.045351 
L 351.066525 189.125604 
L 351.201376 189.251654 
L 351.242435 189.197399 
L 351.254172 189.181589 
L 351.746685 189.278333 
L 351.764273 189.283445 
L 351.881537 188.838633 
L 352.098471 188.375449 
L 352.385787 188.266477 
L 352.473742 187.994543 
L 352.555811 188.054669 
L 352.684796 188.1627 
L 352.942778 188.647424 
L 352.977958 188.591154 
L 353.200747 188.192756 
L 353.25353 188.265696 
L 353.699143 188.225915 
L 353.921953 188.227162 
L 354.039228 189.04958 
L 354.138911 189.040794 
L 354.16235 189.000878 
L 354.48483 188.631273 
L 354.590354 188.583284 
L 354.619713 188.5434 
L 354.930838 188.5363 
L 355.04771 188.889308 
L 355.170827 188.818068 
L 355.446391 188.43282 
L 355.968249 188.307864 
L 356.161699 188.255051 
L 356.314215 188.177934 
L 356.648354 188.060549 
L 356.800813 187.947696 
L 357.158491 187.865729 
L 357.504424 187.883431 
L 357.527833 188.077798 
L 357.820996 188.089114 
L 357.938275 189.403664 
L 357.961707 189.450767 
L 358.237291 189.463034 
L 358.24315 189.587424 
L 358.348712 189.49093 
L 358.54221 189.354372 
L 358.776716 189.293298 
L 358.81189 189.322716 
L 359.187127 189.316427 
L 359.228173 189.464656 
L 359.234068 189.46179 
L 359.333724 189.476148 
L 359.380662 189.632826 
L 359.445149 189.586633 
L 359.486187 189.599555 
L 359.5448 189.552849 
L 360.301187 189.208708 
L 360.917345 189.231108 
L 360.922666 189.447458 
L 361.004761 189.311631 
L 361.239287 189.301032 
L 361.245175 189.589307 
L 361.350699 189.38824 
L 361.356554 189.376887 
L 361.989802 189.246788 
L 362.089469 189.155208 
L 362.142233 189.240346 
L 362.171534 189.29894 
L 362.892726 189.307846 
L 363.004161 189.77235 
L 363.010005 189.771218 
L 363.402855 189.735735 
L 363.701862 188.885065 
L 363.866028 188.481964 
L 364.370267 188.353845 
L 364.610666 188.218932 
L 365.073862 188.069871 
L 365.226324 188.008255 
L 365.929901 187.78085 
L 366.04718 188.389314 
L 366.199629 188.478717 
L 366.387276 188.534074 
L 366.39311 188.515621 
L 366.404832 188.481777 
L 366.826996 188.358345 
L 367.00288 188.268176 
L 367.618551 188.279976 
L 367.999681 188.276734 
L 368.093451 189.385333 
L 368.111049 189.333941 
L 368.902594 186.965775 
L 369.301289 186.96243 
L 369.307146 188.227273 
L 369.412689 188.219813 
L 369.529972 188.36706 
L 369.746945 188.812019 
L 370.227704 188.9329 
L 370.321502 189.046216 
L 370.368402 188.968663 
L 370.608819 188.488652 
L 371.201032 188.346206 
L 371.318242 189.042605 
L 371.458962 189.276984 
L 371.4883 189.222391 
L 371.969072 189.102324 
L 372.162571 189.025743 
L 372.332621 189.056985 
L 372.795792 188.942552 
L 373.194498 188.79109 
L 373.69288 188.874768 
L 373.868775 188.979848 
L 373.997765 189.08375 
L 374.478562 189.167494 
L 374.507966 189.382693 
L 374.59009 189.364387 
L 374.801066 189.205805 
L 374.836244 189.16586 
L 375.199753 189.05437 
L 375.451892 188.801608 
L 375.457763 188.819182 
L 375.575006 188.903791 
L 375.645348 188.926817 
L 376.038244 188.920695 
L 376.155464 189.176734 
L 376.39 189.411849 
L 376.495546 189.399092 
L 376.513152 189.36651 
L 376.548305 189.299154 
L 376.935402 189.174858 
L 377.36333 188.849648 
L 377.451251 188.807652 
L 377.81478 188.819617 
L 378.020006 188.683491 
L 378.623918 188.64182 
L 378.747079 189.047179 
L 378.834995 189.185902 
L 378.89952 189.133254 
L 379.22197 188.957831 
L 379.532723 188.331993 
L 379.538592 188.343741 
L 379.591356 188.226417 
L 379.849347 187.851752 
L 379.855207 187.85428 
L 380.2832 187.836132 
L 380.289079 188.761594 
L 380.394646 188.513939 
L 380.623296 188.574844 
L 380.693659 188.63101 
L 380.69955 188.620988 
L 382.036382 188.693939 
L 382.405792 189.009756 
L 382.423377 188.962338 
L 382.4351 188.92857 
L 383.009703 188.791604 
L 383.021443 188.801748 
L 383.121105 188.821851 
L 383.256065 188.87187 
L 383.513944 188.775602 
L 383.71328 188.585376 
L 384.123743 188.237204 
L 384.493078 188.217567 
L 384.498962 188.684604 
L 384.604505 188.558494 
L 384.868342 188.307607 
L 385.278741 188.283387 
L 385.284633 188.389111 
L 385.372587 188.209408 
L 385.384316 188.248622 
L 385.560243 188.356342 
L 385.777158 188.810246 
L 385.812277 188.776766 
L 386.205149 188.763594 
L 386.322446 189.231971 
L 386.363495 189.254244 
L 386.422123 189.197675 
L 386.93808 188.257607 
L 387.237091 187.637242 
L 387.242958 187.644196 
L 387.483327 187.417668 
L 387.887898 187.412676 
L 387.905477 188.438872 
L 387.999304 188.411623 
L 388.140038 188.538697 
L 388.333508 188.853205 
L 388.368697 188.783122 
L 388.421458 188.661815 
L 388.779098 188.64643 
L 388.902259 188.969649 
L 389.048827 188.922488 
L 389.189534 188.934946 
L 389.547648 188.937723 
L 389.553139 189.102765 
L 389.658596 188.963817 
L 389.699694 188.948983 
L 389.770026 188.977304 
L 389.922526 189.10281 
L 390.080753 189.089385 
L 390.479538 189.190742 
L 390.502925 189.212768 
L 393.200562 189.246857 
L 393.205872 190.007334 
L 393.311421 189.851778 
L 393.446291 189.458464 
L 394.185067 189.530828 
L 395.070451 189.536854 
L 395.076305 189.98782 
L 395.164226 189.714603 
L 395.533611 189.596278 
L 395.932335 188.680065 
L 395.949895 188.665562 
L 396.319268 188.668016 
L 396.325136 188.832909 
L 396.430696 188.776203 
L 396.577276 188.872736 
L 396.624164 188.802083 
L 396.770781 188.67714 
L 397.506014 188.75461 
L 397.620934 188.929613 
L 397.650236 188.897055 
L 398.066515 189.001036 
L 398.213132 189.19222 
L 398.271767 189.118757 
L 398.482816 188.903657 
L 398.494556 188.884407 
L 398.50043 188.888795 
L 398.910836 188.757313 
L 399.051588 188.736559 
L 399.338883 189.211239 
L 399.75516 189.334232 
L 399.94282 189.448534 
L 400.177331 189.096926 
L 400.581936 189.013504 
L 400.705041 188.752566 
L 400.875109 188.614761 
L 401.07445 188.32997 
L 401.080298 188.310764 
L 401.619873 188.404287 
L 401.877698 188.732948 
L 402.241196 188.736511 
L 402.247089 188.970553 
L 402.352602 188.931702 
L 402.604697 188.912858 
L 402.69855 188.974693 
L 403.191066 189.08769 
L 403.337624 189.536785 
L 403.378679 189.555192 
L 403.419729 189.461441 
L 403.42559 189.463956 
L 403.607337 189.256406 
L 404.017782 189.359846 
L 404.129206 189.335902 
L 404.135041 189.328158 
L 404.428193 189.028478 
L 404.879692 188.908059 
L 405.237391 188.329753 
L 405.296034 188.229207 
L 405.301885 188.210009 
L 405.688807 188.18712 
L 405.694709 188.292143 
L 405.729967 188.295866 
L 405.847173 188.768428 
L 405.853051 188.766512 
L 406.034841 188.841726 
L 406.099317 188.904046 
L 406.433453 188.910299 
L 406.439321 189.033214 
L 406.533139 188.86043 
L 406.539004 188.869069 
L 406.550733 188.8716 
L 406.580043 188.941624 
L 406.597634 188.957509 
L 406.908428 189.251496 
L 406.914307 189.244482 
L 407.32466 189.240446 
L 407.330555 189.429463 
L 407.436116 189.372437 
L 407.570981 189.200373 
L 407.582691 189.247715 
L 408.189126 189.080799 
L 408.1924 189.128676 
L 408.286246 189.027182 
L 408.292101 189.027789 
L 408.309697 189.014055 
L 408.426949 188.596623 
L 408.585244 188.623941 
L 408.643883 188.686582 
L 408.649739 188.682184 
L 408.995701 188.564564 
L 409.136429 188.43113 
L 409.159883 188.466145 
L 409.189188 188.815211 
L 409.2713 188.768195 
L 409.341629 188.690686 
L 409.470606 188.468598 
L 409.476503 188.475093 
L 409.517518 188.387362 
L 409.963164 188.471118 
L 410.303213 189.105994 
L 410.690169 189.118821 
L 410.754667 189.500111 
L 410.807436 189.466751 
L 410.91886 189.474287 
L 410.924722 189.468054 
L 411.464437 189.365799 
L 411.469979 189.422839 
L 411.604826 189.405147 
L 411.610689 189.542514 
L 411.722503 189.551728 
L 411.804163 189.805136 
L 412.091467 189.968057 
L 412.097378 190.382786 
L 412.120791 190.355977 
L 412.894757 190.22846 
L 413.164489 189.75398 
L 413.240719 189.710306 
L 413.498665 189.59612 
L 413.762507 189.313316 
L 413.768383 189.411814 
L 413.856348 189.284377 
L 413.868051 189.292198 
L 414.014639 189.357274 
L 414.038088 189.257538 
L 414.401612 189.321272 
L 414.425062 189.354132 
L 414.501281 189.289363 
L 414.530627 189.256551 
L 414.606821 189.328585 
L 414.706502 189.306966 
L 414.782745 189.296459 
L 414.788601 189.411034 
L 414.894141 189.344127 
L 414.905853 189.32726 
L 415.380787 189.415386 
L 415.556671 189.551638 
L 415.568405 189.53402 
L 415.679805 189.497902 
L 415.70914 189.680204 
L 415.791215 189.608536 
L 416.277846 189.052062 
L 416.400996 189.015115 
L 416.553445 189.104641 
L 416.93453 189.102327 
L 417.051803 189.975808 
L 417.221866 190.000359 
L 418.283097 189.953369 
L 418.300681 190.637481 
L 418.394488 190.461855 
L 418.670074 189.757039 
L 418.851841 189.435177 
L 419.203677 188.963364 
L 419.520251 188.950877 
L 419.596493 189.727701 
L 419.63167 189.639865 
L 419.748928 189.188874 
L 420.047932 188.686901 
L 420.411457 188.578551 
L 420.511128 188.497377 
L 420.628402 188.820499 
L 420.898135 189.254095 
L 420.915726 189.21282 
L 421.273406 189.199995 
L 421.296883 189.396066 
L 421.396488 189.312677 
L 422.258405 189.524403 
L 422.311158 189.56189 
L 422.42843 189.881855 
L 422.604318 189.84286 
L 422.733313 189.490212 
L 422.985442 189.037852 
L 422.991296 189.055267 
L 423.255184 189.411938 
L 424.468857 189.415602 
L 424.474714 190.713603 
L 424.533347 190.686007 
L 425.307312 190.561763 
L 425.50664 190.550674 
L 425.752908 190.386206 
L 425.928838 190.14238 
L 426.262998 190.173085 
L 426.268876 190.245714 
L 426.315778 190.213517 
L 426.591345 190.211384 
L 426.708631 190.47206 
L 426.925635 190.348842 
L 427.137547 190.178774 
L 427.957526 190.069371 
L 428.004412 189.959379 
L 428.403153 189.841813 
L 428.743211 189.405231 
L 428.825273 189.488181 
L 429.435071 189.392855 
L 429.640257 189.138992 
L 429.710608 188.94157 
L 430.115622 188.914967 
L 430.126944 189.178649 
L 430.226575 189.089955 
L 430.437683 189.033849 
L 431.053309 189.100282 
L 431.381682 189.348949 
L 432.126325 189.457991 
L 432.231874 189.600276 
L 432.255312 189.572472 
L 432.601325 189.561949 
L 432.718814 189.749117 
L 432.836083 189.763358 
L 432.859211 189.705082 
L 433.123045 189.14928 
L 433.726994 189.223299 
L 433.949778 189.594209 
L 434.512646 189.670512 
L 434.518558 189.316074 
L 434.624043 189.40361 
L 434.676809 189.432321 
L 434.682692 188.887681 
L 434.788218 188.981322 
L 434.805813 189.011732 
L 434.829274 189.000219 
L 435.181056 189.105769 
L 435.298363 189.250101 
L 435.339393 189.198381 
L 435.573909 189.039351 
L 436.300994 188.934322 
L 436.482692 188.80961 
L 436.740689 188.692623 
L 436.875555 188.316954 
L 436.928309 188.712012 
L 436.986932 188.650789 
L 437.203878 188.562405 
L 437.315276 188.496707 
L 437.350471 188.417023 
L 437.672933 188.403048 
L 437.678793 188.789697 
L 437.784346 188.629923 
L 438.007159 188.357354 
L 438.171315 188.06489 
L 438.499684 187.963762 
L 438.634547 187.874574 
L 439.760297 187.866162 
L 439.836506 188.077008 
L 439.848222 188.060003 
L 440.217588 188.052584 
L 440.334877 188.719844 
L 440.680822 189.332366 
L 440.692532 189.325747 
L 440.932979 189.238278 
L 441.372733 188.639192 
L 441.577907 188.54612 
L 441.953595 188.526981 
L 441.994195 189.078373 
L 442.064559 189.053188 
L 442.410494 188.730517 
L 442.891276 188.619855 
L 443.0027 188.660055 
L 443.07895 188.692962 
L 443.114091 188.635305 
L 443.237209 188.649406 
L 443.577276 188.545885 
L 443.735604 188.472681 
L 443.98184 188.311009 
L 444.439155 188.231094 
L 444.527164 188.587822 
L 444.556475 188.556162 
L 444.62095 188.556851 
L 444.662016 188.521327 
L 444.738203 188.513567 
L 444.779253 188.539531 
L 444.902389 188.601492 
L 444.914114 188.498636 
L 444.949313 187.556074 
L 445.424211 187.636362 
L 445.664609 187.958829 
L 445.705701 187.907983 
L 445.787761 187.845057 
L 445.805348 187.882678 
L 446.098529 187.757319 
L 446.303754 187.473402 
L 446.309631 187.483139 
L 446.374116 187.40519 
L 446.379998 187.420209 
L 446.514818 187.217498 
L 446.520678 187.235002 
L 446.632092 187.312611 
L 446.972142 187.293266 
L 446.978007 187.553845 
L 446.995601 187.176676 
L 447.077691 187.243801 
L 447.359133 187.506628 
L 447.83991 187.580605 
L 447.857498 187.963783 
L 447.898556 187.88404 
L 448.40277 187.487203 
L 448.789711 187.373601 
L 448.801483 187.336454 
L 448.895258 187.391108 
L 449.170825 187.540581 
L 449.540198 187.533482 
L 449.546084 187.786628 
L 449.65163 187.647144 
L 449.856863 187.689395 
L 449.933097 187.783213 
L 449.974116 187.757182 
L 450.325897 187.755128 
L 450.331785 187.867248 
L 450.41975 187.657089 
L 450.437333 187.855817 
L 450.554588 187.755551 
L 450.665991 187.479676 
L 450.7833 189.51818 
L 450.789131 189.367539 
L 450.865337 189.371741 
L 451.217112 189.365645 
L 451.258201 189.540607 
L 451.328545 189.47452 
L 451.439945 189.539948 
L 451.568937 189.641172 
L 451.580687 189.619919 
L 451.674486 189.237869 
L 452.067293 189.115676 
L 452.208022 189.102948 
L 452.553978 188.996514 
L 452.571578 188.956292 
L 452.882298 189.035418 
L 453.05232 189.347735 
L 453.169616 189.409567 
L 453.292746 188.396868 
L 453.304533 187.848565 
L 453.415895 183.652917 
L 453.961141 183.536379 
L 454.072535 183.589829 
L 454.13702 183.659465 
L 454.219178 182.32331 
L 454.178095 184.240653 
L 454.254345 182.356146 
L 454.987217 182.61127 
L 455.069306 185.215207 
L 455.110346 185.194776 
L 455.467984 185.183561 
L 455.667361 187.949104 
L 455.714244 187.853156 
L 455.931196 187.132555 
L 456.435442 187.054387 
L 456.55857 189.166381 
L 456.56444 188.703934 
L 456.775482 189.00769 
L 456.822389 188.86146 
L 457.162481 188.13308 
L 457.238754 188.008524 
L 457.35011 186.779528 
L 457.355989 186.802175 
L 457.473262 186.201473 
L 457.567038 186.214361 
L 457.842603 186.215934 
L 457.848466 187.067891 
L 457.954018 186.913604 
L 457.995056 187.048528 
L 458.370294 187.362903 
L 458.786598 187.368894 
L 458.868705 187.798352 
L 458.903879 187.781765 
L 459.091495 187.715617 
L 459.144239 187.680786 
L 459.150121 188.227998 
L 459.255707 188.050274 
L 459.279105 187.981098 
L 459.613331 187.863327 
L 459.71889 187.419088 
L 459.812676 187.52506 
L 459.830263 188.823291 
L 459.924077 188.786696 
L 459.976841 188.801224 
L 460.012024 188.852429 
L 460.129286 189.052592 
L 460.199666 188.938079 
L 460.475213 188.926972 
L 460.563609 189.253301 
L 460.592514 189.243158 
L 460.656977 189.212195 
L 460.698025 189.278606 
L 461.131903 189.753503 
L 461.161231 189.698764 
L 461.170372 189.688902 
L 461.395746 189.788398 
L 461.471986 189.782888 
L 461.489567 189.746251 
L 461.642011 189.442286 
L 461.647882 189.829754 
L 461.741747 189.472652 
L 461.859003 188.110547 
L 461.888272 188.010974 
L 462.240077 188.001866 
L 462.245954 188.459576 
L 462.33395 187.095548 
L 462.404288 187.041938 
L 462.539123 184.655604 
L 462.632963 184.419193 
L 462.750171 183.771923 
L 462.785364 183.652042 
L 463.154732 183.516916 
L 463.172371 183.490061 
L 463.289652 180.974381 
L 463.30136 181.510105 
L 463.371696 181.527109 
L 463.377629 180.997703 
L 463.483115 181.111446 
L 463.524191 181.133651 
L 463.530062 180.612215 
L 463.635572 180.669743 
L 463.664879 180.586048 
L 463.981479 180.569831 
L 464.057718 181.972271 
L 464.110486 181.906592 
L 464.128087 181.895698 
L 464.251209 183.002547 
L 464.280489 182.957844 
L 464.356711 184.140649 
L 464.696792 184.136598 
L 464.70265 185.734511 
L 464.808225 185.408882 
L 464.825829 185.367663 
L 464.878593 185.409463 
L 464.995836 186.172285 
L 465.160012 186.232969 
L 465.165884 186.763507 
L 465.183467 186.754959 
L 465.55282 186.741558 
L 465.670106 188.031649 
L 465.758051 188.115417 
L 465.875329 188.743068 
L 466.033639 188.898408 
L 466.496845 188.98333 
L 466.502694 190.381996 
L 466.608245 190.294304 
L 466.965943 189.985814 
L 467.347018 189.862234 
L 467.546355 189.639808 
L 467.604984 189.575006 
L 467.681214 189.64699 
L 467.745715 189.68297 
L 468.138531 189.661064 
L 468.255837 189.894136 
L 468.373104 189.962384 
L 468.472761 189.961827 
L 468.502063 189.918362 
L 468.595894 189.805472 
L 468.631116 189.71178 
L 469.193945 189.579761 
L 469.305312 189.516973 
L 469.346355 189.599455 
L 469.387443 189.626842 
L 469.4109 189.605833 
L 469.698182 189.602115 
L 469.704039 189.772156 
L 469.709895 189.751077 
L 470.026552 189.728464 
L 470.126262 190.410757 
L 470.132065 190.406848 
L 470.497459 190.406513 
L 470.501452 190.627559 
L 470.606975 190.490263 
L 470.87086 190.033242 
L 470.982229 190.019175 
L 470.993962 189.99146 
L 471.040905 189.876924 
L 471.463095 189.848475 
L 471.621392 187.608499 
L 471.627219 187.608696 
L 471.697573 187.483308 
L 471.861775 187.320694 
L 471.879381 187.302179 
L 472.459792 187.305888 
L 472.571179 188.604721 
L 472.717727 188.780364 
L 473.339237 188.786541 
L 473.433063 188.968261 
L 473.45651 188.96494 
L 474.165977 188.897189 
L 474.283225 188.841927 
L 474.318405 188.896654 
L 474.400492 188.967294 
L 474.851976 189.01768 
L 474.952136 188.407609 
L 474.963377 188.483591 
L 475.004459 188.321492 
L 475.057202 187.644576 
L 475.121714 187.662096 
L 475.15103 187.620795 
L 475.156907 188.165435 
L 475.262431 188.01061 
L 475.30934 187.877729 
L 475.702181 187.761225 
L 475.819413 187.658878 
L 475.831128 187.718368 
L 476.100847 187.818434 
L 476.11257 187.803325 
L 476.247429 187.465277 
L 476.798591 185.424364 
L 477.097619 185.075819 
L 477.126934 185.113318 
L 477.390799 185.250854 
L 477.396664 185.197262 
L 477.437714 185.250408 
L 477.549093 186.805995 
L 477.554955 186.805008 
L 478.088501 187.007143 
L 478.147135 187.796663 
L 478.205771 187.773926 
L 478.388038 187.857745 
L 478.463744 188.285793 
L 478.498928 188.276342 
L 478.63377 188.241831 
L 478.63967 188.246939 
L 479.003164 188.240938 
L 479.091109 188.627486 
L 479.278756 188.725233 
L 479.419464 189.23221 
L 479.513265 189.417148 
L 479.917825 189.4151 
L 480.222745 189.77006 
L 480.304811 189.681632 
L 480.345841 189.643267 
L 480.896996 189.511853 
L 480.932169 189.439433 
L 481.248794 189.427467 
L 481.295712 189.780765 
L 481.31334 189.772542 
L 481.882024 189.690417 
L 481.999308 186.678206 
L 482.444896 186.640032 
L 482.450762 186.901204 
L 482.556306 186.832395 
L 482.732207 186.76725 
L 482.743935 186.812217 
L 482.884644 186.769808 
L 482.937433 186.589139 
L 483.383022 186.452424 
L 483.441657 186.286791 
L 483.887314 185.432547 
L 484.221472 185.411942 
L 484.338743 186.027525 
L 484.344594 186.024564 
L 484.44429 186.141736 
L 484.7375 186.599956 
L 484.766805 186.536229 
L 484.81366 186.442842 
L 485.05406 186.352291 
L 485.183097 185.943596 
L 485.546594 184.938873 
L 485.921835 184.824482 
L 486.168094 184.403375 
L 486.426075 183.880529 
L 486.813057 183.757584 
L 487.229369 182.73009 
L 487.598713 182.607582 
L 488.073666 181.264855 
L 488.501681 181.147062 
L 488.888664 180.40961 
L 489.263899 180.292443 
L 489.498411 180.001155 
L 490.313461 179.082978 
L 490.536258 178.694375 
L 490.987707 178.574894 
L 491.445027 177.288381 
L 491.497849 177.11504 
L 491.796901 176.995831 
L 492.236754 175.614433 
L 492.617735 175.494558 
L 492.79359 175.075 
L 492.910885 173.307128 
L 493.080908 172.717807 
L 493.350626 172.602978 
L 493.391735 172.448778 
L 493.508987 171.456014 
L 493.679045 170.882195 
L 493.825613 167.14544 
L 493.931074 166.773057 
L 494.376684 166.651857 
L 494.593637 166.30573 
L 494.775409 166.004003 
L 494.798878 164.89662 
L 495.203429 164.780674 
L 495.63145 163.84825 
L 496.041872 163.718699 
L 496.475751 163.032072 
L 496.915467 162.913337 
L 497.396301 162.021669 
L 497.736342 161.890939 
L 498.228863 161.003866 
L 498.580649 160.887262 
L 498.780052 160.441232 
L 499.372189 159.19914 
L 499.864728 158.200693 
L 500.2341 158.077715 
L 500.673847 157.299623 
L 501.154627 157.187089 
L 501.570919 156.527554 
L 501.916867 156.412921 
L 502.256932 155.754394 
L 502.415237 155.372096 
L 502.432841 155.304775 
L 502.76705 155.182645 
L 503.224364 153.918905 
L 503.634799 153.799525 
L 503.822424 153.487866 
L 504.068702 153.01127 
L 504.47912 152.886702 
L 504.883693 151.457158 
L 505.317542 151.338091 
L 505.745572 149.923815 
L 506.015288 149.804241 
L 506.37881 148.977116 
L 506.601615 148.560164 
L 507.08825 148.448827 
L 507.43425 147.583609 
L 507.956028 147.457853 
L 508.372347 146.260424 
L 508.9821 146.124983 
L 509.245985 145.685752 
L 509.486365 145.065214 
L 509.703433 144.933095 
L 510.072703 143.755591 
L 510.453781 143.661072 
L 510.571043 142.6428 
L 510.76453 141.98624 
L 510.864225 139.083548 
L 511.227784 138.972302 
L 511.350898 137.499526 
L 511.561969 137.145197 
L 511.644058 136.930999 
L 512.154146 136.804528 
L 512.529421 135.818262 
L 513.068822 135.697598 
L 513.162634 135.41978 
L 513.391362 134.636441 
L 513.684445 134.515206 
L 513.924921 133.680959 
L 514.042142 132.879188 
L 514.159391 132.541313 
L 514.522943 132.421471 
L 514.73984 132.042777 
L 515.085775 131.379784 
L 515.531406 131.256457 
L 515.88317 130.79575 
L 516.358119 130.683882 
L 516.704106 129.779943 
L 517.03825 129.653694 
L 517.524922 128.608001 
L 517.9236 128.494931 
L 518.398595 126.904185 
L 518.445471 124.778282 
L 519.07282 124.655858 
L 519.606379 124.175006 
L 519.723643 123.409842 
L 520.040285 122.638651 
L 520.538702 122.527153 
L 520.761407 122.180969 
L 520.843495 121.974499 
L 520.990096 121.487253 
L 521.29499 121.371232 
L 521.734724 120.339588 
L 521.816827 120.157123 
L 522.262415 120.044334 
L 522.631822 119.18541 
L 522.655271 119.148727 
L 522.966037 119.030318 
L 523.51127 117.87981 
L 523.904114 117.660221 
L 524.396668 116.302047 
L 524.724985 116.18125 
L 525.194037 115.299596 
L 525.616195 115.156113 
L 525.915241 114.609432 
L 526.032487 113.395928 
L 526.4605 113.274854 
L 526.818168 112.563282 
L 527.216852 112.448919 
L 527.726982 111.41907 
L 528.160911 111.297709 
L 528.489207 110.703701 
L 528.918542 110.576859 
L 529.310091 109.917521 
L 529.409739 109.369335 
L 529.802569 109.243025 
L 530.171971 108.610688 
L 530.249748 108.504723 
L 530.617565 108.396712 
L 531.104209 107.095837 
L 531.532234 106.97362 
L 531.757095 106.63877 
L 531.930935 106.49043 
L 532.358957 106.376107 
L 532.71081 105.257041 
L 533.103595 105.125977 
L 533.5357 104.067135 
L 533.541602 104.0572 
L 533.887714 103.938035 
L 534.223497 103.020372 
L 534.434566 102.582779 
L 534.874291 102.453689 
L 535.149869 102.003044 
L 535.249563 101.663118 
L 535.706919 101.540258 
L 536.070401 100.74866 
L 536.117316 100.676304 
L 536.510158 100.570007 
L 536.697769 100.100216 
L 536.990944 99.488179 
L 537.495199 99.376657 
L 537.876308 98.569582 
L 538.286776 98.460794 
L 538.626793 97.9447 
L 539.160352 97.829922 
L 539.330417 97.525416 
L 539.518012 97.148466 
L 539.904986 97.028521 
L 540.40337 95.973963 
L 540.825515 95.855742 
L 540.972104 95.576864 
L 541.165591 95.219279 
L 541.634656 95.10717 
L 541.980689 94.583908 
L 542.426213 94.464439 
L 542.860091 93.869165 
L 543.211889 93.759216 
L 543.704432 92.672543 
L 544.161736 92.546268 
L 544.589744 91.117242 
L 544.976721 90.99467 
L 545.393022 89.974729 
L 545.873808 89.846876 
L 546.254929 89.298618 
L 546.612652 89.185487 
L 546.864707 88.752842 
L 547.081654 88.336246 
L 547.497944 88.220482 
L 547.955289 87.510477 
L 548.365697 87.394006 
L 548.887538 85.923977 
L 549.204152 85.798599 
L 549.608723 84.95025 
L 550.019171 84.827821 
L 550.49995 83.799876 
L 550.922095 83.683208 
L 551.273895 82.790214 
L 551.291482 82.734452 
L 551.631537 82.60356 
L 551.790181 82.415439 
L 552.604853 82.296143 
L 553.044611 80.870493 
L 553.408133 80.741183 
L 553.765774 80.033754 
L 553.87722 79.859032 
L 554.164493 79.731328 
L 554.352111 79.413241 
L 554.73322 78.62485 
L 555.190571 78.489317 
L 555.606862 77.371901 
L 556.01141 77.246919 
L 556.451191 76.409773 
L 556.861616 76.290557 
L 557.248985 75.531459 
L 557.79387 75.38236 
L 558.133925 74.575632 
L 558.497469 74.452464 
L 558.702658 74.083803 
L 558.925463 73.518292 
L 559.400384 73.414102 
L 559.564562 73.104319 
L 559.810833 72.673991 
L 560.19781 72.554083 
L 560.449916 71.916513 
L 560.661001 71.505679 
L 561.083173 71.396398 
L 561.411508 70.501837 
L 561.82193 70.376155 
L 562.296855 69.380606 
L 562.654508 69.254426 
L 563.193921 67.788911 
L 563.510544 67.665456 
L 563.991366 66.013879 
L 564.425221 65.883409 
L 564.730119 65.274643 
L 564.876688 65.019699 
L 565.275386 64.903707 
L 565.715156 64.307711 
L 566.102126 64.19506 
L 566.565324 63.231698 
L 566.629818 63.108485 
L 567.016792 62.980829 
L 567.368611 62.406494 
L 567.743834 62.289101 
L 568.078054 61.571793 
L 568.207036 61.131833 
L 568.576429 61.00431 
L 569.022034 59.731546 
L 569.42659 59.615203 
L 569.614253 59.15049 
L 569.749075 58.955155 
L 569.878084 58.403917 
L 569.901522 58.351356 
L 570.341347 58.311166 
L 570.47029 58.001773 
L 570.716526 57.217135 
L 570.786904 57.075401 
L 571.209074 56.949638 
L 571.578436 56.132359 
L 572.135453 56.015554 
L 572.422776 55.53341 
L 572.78628 55.41521 
L 573.226044 54.683337 
L 573.695103 54.545029 
L 574.105594 53.383568 
L 574.49254 53.252287 
L 574.908807 52.158383 
L 575.260573 52.031454 
L 575.800028 50.233102 
L 576.181119 50.099438 
L 576.726391 48.952138 
L 577.095787 48.834563 
L 577.494524 48.247246 
L 577.55315 48.16538 
L 577.916756 48.044461 
L 578.309488 47.500849 
L 578.35053 47.44457 
L 578.702324 47.323958 
L 579.253483 46.397471 
L 579.658061 46.252525 
L 579.986378 45.705119 
L 580.37923 45.587358 
L 580.871731 44.567461 
L 581.329088 44.451892 
L 581.716049 43.499463 
L 582.097171 43.383123 
L 582.572082 42.398755 
L 582.959064 42.281208 
L 583.310854 41.314658 
L 583.340181 41.226061 
L 583.820952 41.100674 
L 584.037897 40.453389 
L 584.1493 40.164222 
L 584.295874 39.864612 
L 584.653559 39.740375 
L 585.034655 38.924852 
L 585.374743 38.799872 
L 585.955201 37.188351 
L 586.31291 37.069224 
L 586.688174 36.092133 
L 586.717473 35.983666 
L 587.104419 35.854665 
L 587.385894 35.283555 
L 587.608654 34.806465 
L 588.007333 34.7076 
L 588.065937 189.160259 
L 588.171494 189.073886 
L 588.189067 189.345485 
L 588.499819 188.068261 
L 588.898518 187.942862 
L 589.273786 187.092109 
L 589.64907 186.972686 
L 590.182637 185.04843 
L 590.522699 184.918409 
L 590.686851 184.346769 
L 590.733803 187.704014 
L 590.798254 187.517672 
L 590.979984 187.191844 
L 591.372844 187.085722 
L 591.771532 186.106565 
L 592.08815 186.04177 
L 592.094025 188.376646 
L 592.199571 188.184046 
L 592.674524 187.163948 
L 592.985283 187.115306 
L 592.991135 188.5081 
L 593.096678 188.395158 
L 593.829544 186.762042 
L 593.835404 188.060755 
L 593.94099 187.72562 
L 594.351372 186.887755 
L 594.697387 186.789909 
L 594.703356 188.502212 
L 594.808751 188.294318 
L 595.10778 187.785137 
L 595.553332 187.708286 
L 595.559196 188.983281 
L 595.664745 188.733365 
L 595.858231 188.280707 
L 596.063485 187.741751 
L 596.450468 187.625841 
L 596.462202 187.593226 
L 596.473955 188.56799 
L 596.485636 188.537001 
" clip-path="url(#p78f5be5242)" style="fill: none; stroke: #1f77b4; stroke-width: 1.5; stroke-linecap: square"/>
   </g>
   <g id="patch_3">
    <path d="M 86.22 199.2888 
L 86.22 26.8704 
" style="fill: none; stroke: #000000; stroke-width: 0.8; stroke-linejoin: miter; stroke-linecap: square"/>
   </g>
   <g id="patch_4">
    <path d="M 620.784 199.2888 
L 620.784 26.8704 
" style="fill: none; stroke: #000000; stroke-width: 0.8; stroke-linejoin: miter; stroke-linecap: square"/>
   </g>
   <g id="patch_5">
    <path d="M 86.22 199.2888 
L 620.784 199.2888 
" style="fill: none; stroke: #000000; stroke-width: 0.8; stroke-linejoin: miter; stroke-linecap: square"/>
   </g>
   <g id="patch_6">
    <path d="M 86.22 26.8704 
L 620.784 26.8704 
" style="fill: none; stroke: #000000; stroke-width: 0.8; stroke-linejoin: miter; stroke-linecap: square"/>
   </g>
   <g id="legend_1">
    <g id="patch_7">
     <path d="M 93.22 49.548525 
L 205.87 49.548525 
Q 207.87 49.548525 207.87 47.548525 
L 207.87 33.8704 
Q 207.87 31.8704 205.87 31.8704 
L 93.22 31.8704 
Q 91.22 31.8704 91.22 33.8704 
L 91.22 47.548525 
Q 91.22 49.548525 93.22 49.548525 
z
" style="fill: #ffffff; opacity: 0.8; stroke: #cccccc; stroke-linejoin: miter"/>
    </g>
    <g id="line2d_18">
     <path d="M 95.22 39.968837 
L 105.22 39.968837 
L 115.22 39.968837 
" style="fill: none; stroke: #1f77b4; stroke-width: 1.5; stroke-linecap: square"/>
    </g>
    <g id="text_17">
     <!-- cache (1.43 GB) -->
     <g transform="translate(123.22 43.468837) scale(0.1 -0.1)">
      <defs>
       <path id="DejaVuSans-63" d="M 3122 3366 
L 3122 2828 
Q 2878 2963 2633 3030 
Q 2388 3097 2138 3097 
Q 1578 3097 1268 2742 
Q 959 2388 959 1747 
Q 959 1106 1268 751 
Q 1578 397 2138 397 
Q 2388 397 2633 464 
Q 2878 531 3122 666 
L 3122 134 
Q 2881 22 2623 -34 
Q 2366 -91 2075 -91 
Q 1284 -91 818 406 
Q 353 903 353 1747 
Q 353 2603 823 3093 
Q 1294 3584 2113 3584 
Q 2378 3584 2631 3529 
Q 2884 3475 3122 3366 
z
" transform="scale(0.015625)"/>
       <path id="DejaVuSans-61" d="M 2194 1759 
Q 1497 1759 1228 1600 
Q 959 1441 959 1056 
Q 959 750 1161 570 
Q 1363 391 1709 391 
Q 2188 391 2477 730 
Q 2766 1069 2766 1631 
L 2766 1759 
L 2194 1759 
z
M 3341 1997 
L 3341 0 
L 2766 0 
L 2766 531 
Q 2569 213 2275 61 
Q 1981 -91 1556 -91 
Q 1019 -91 701 211 
Q 384 513 384 1019 
Q 384 1609 779 1909 
Q 1175 2209 1959 2209 
L 2766 2209 
L 2766 2266 
Q 2766 2663 2505 2880 
Q 2244 3097 1772 3097 
Q 1472 3097 1187 3025 
Q 903 2953 641 2809 
L 641 3341 
Q 956 3463 1253 3523 
Q 1550 3584 1831 3584 
Q 2591 3584 2966 3190 
Q 3341 2797 3341 1997 
z
" transform="scale(0.015625)"/>
       <path id="DejaVuSans-68" d="M 3513 2113 
L 3513 0 
L 2938 0 
L 2938 2094 
Q 2938 2591 2744 2837 
Q 2550 3084 2163 3084 
Q 1697 3084 1428 2787 
Q 1159 2491 1159 1978 
L 1159 0 
L 581 0 
L 581 4863 
L 1159 4863 
L 1159 2956 
Q 1366 3272 1645 3428 
Q 1925 3584 2291 3584 
Q 2894 3584 3203 3211 
Q 3513 2838 3513 2113 
z
" transform="scale(0.015625)"/>
       <path id="DejaVuSans-65" d="M 3597 1894 
L 3597 1613 
L 953 1613 
Q 991 1019 1311 708 
Q 1631 397 2203 397 
Q 2534 397 2845 478 
Q 3156 559 3463 722 
L 3463 178 
Q 3153 47 2828 -22 
Q 2503 -91 2169 -91 
Q 1331 -91 842 396 
Q 353 884 353 1716 
Q 353 2575 817 3079 
Q 1281 3584 2069 3584 
Q 2775 3584 3186 3129 
Q 3597 2675 3597 1894 
z
M 3022 2063 
Q 3016 2534 2758 2815 
Q 2500 3097 2075 3097 
Q 1594 3097 1305 2825 
Q 1016 2553 972 2059 
L 3022 2063 
z
" transform="scale(0.015625)"/>
       <path id="DejaVuSans-28" d="M 1984 4856 
Q 1566 4138 1362 3434 
Q 1159 2731 1159 2009 
Q 1159 1288 1364 580 
Q 1569 -128 1984 -844 
L 1484 -844 
Q 1016 -109 783 600 
Q 550 1309 550 2009 
Q 550 2706 781 3412 
Q 1013 4119 1484 4856 
L 1984 4856 
z
" transform="scale(0.015625)"/>
       <path id="DejaVuSans-2e" d="M 684 794 
L 1344 794 
L 1344 0 
L 684 0 
L 684 794 
z
" transform="scale(0.015625)"/>
       <path id="DejaVuSans-29" d="M 513 4856 
L 1013 4856 
Q 1481 4119 1714 3412 
Q 1947 2706 1947 2009 
Q 1947 1309 1714 600 
Q 1481 -109 1013 -844 
L 513 -844 
Q 928 -128 1133 580 
Q 1338 1288 1338 2009 
Q 1338 2731 1133 3434 
Q 928 4138 513 4856 
z
" transform="scale(0.015625)"/>
      </defs>
      <use xlink:href="#DejaVuSans-63"/>
      <use xlink:href="#DejaVuSans-61" x="54.980469"/>
      <use xlink:href="#DejaVuSans-63" x="116.259766"/>
      <use xlink:href="#DejaVuSans-68" x="171.240234"/>
      <use xlink:href="#DejaVuSans-65" x="234.619141"/>
      <use xlink:href="#DejaVuSans-20" x="296.142578"/>
      <use xlink:href="#DejaVuSans-28" x="327.929688"/>
      <use xlink:href="#DejaVuSans-31" x="366.943359"/>
      <use xlink:href="#DejaVuSans-2e" x="430.566406"/>
      <use xlink:href="#DejaVuSans-34" x="462.353516"/>
      <use xlink:href="#DejaVuSans-33" x="525.976562"/>
      <use xlink:href="#DejaVuSans-20" x="589.599609"/>
      <use xlink:href="#DejaVuSans-47" x="621.386719"/>
      <use xlink:href="#DejaVuSans-42" x="698.876953"/>
      <use xlink:href="#DejaVuSans-29" x="767.480469"/>
     </g>
    </g>
   </g>
  </g>
 </g>
 <defs>
  <clipPath id="p78f5be5242">
   <rect x="86.22" y="26.8704" width="534.564" height="172.4184"/>
  </clipPath>
 </defs>
</svg>
